<?xml version="1.0" encoding="utf-8"?>
<!-- Generator: Adobe Illustrator 16.0.0, SVG Export Plug-In . SVG Version: 6.00 Build 0)  -->
<!DOCTYPE svg PUBLIC "-//W3C//DTD SVG 1.1//EN" "http://www.w3.org/Graphics/SVG/1.1/DTD/svg11.dtd">
<svg version="1.1" id="Layer_1" xmlns="http://www.w3.org/2000/svg" xmlns:xlink="http://www.w3.org/1999/xlink" x="0px" y="0px"
	 width="258.436px" height="258.436px" viewBox="0 0 258.436 258.436" enable-background="new 0 0 258.436 258.436"
	 xml:space="preserve">
<g>
	<path fill="#424242" d="M129.217,0C57.853,0,0,57.853,0,129.217c0,71.365,57.854,129.219,129.217,129.219
		c71.365,0,129.219-57.854,129.219-129.219C258.435,57.853,200.582,0,129.217,0z M80.029,98.99
		c18.218-16.854,38.351-30.403,63.436-34.326c18.186-2.844,35.972-1.002,51.725,9.432c14.949,9.901,21.055,24.707,20.973,42.256
		c-0.007,1.255-1.638,3.458-2.72,3.596c-6.212,0.79-12.485,1.091-19.164,1.588c0-5.069,0.248-9.692-0.041-14.281
		c-1.459-23.135-22.473-37.893-44.804-31.362c-13.677,3.999-25.588,10.927-34.777,22.131c-1.004,1.226-2.908,2.379-4.421,2.41
		c-10.136,0.211-20.278,0.109-30.687,0.109C79.77,99.788,79.76,99.238,80.029,98.99z M170.398,171.723
		c-0.059,13.846-8.945,22.069-22.768,20.417c-18.469-2.21-36.896-4.771-55.333-7.232c-3.454-0.463-6.907-0.921-10.361-1.372
		c-2.34-0.307-4.682-0.612-7.021-0.917c-4.682-0.609-9.363-1.211-14.046-1.793c-4.017-0.498-8.033-0.979-12.054-1.438
		c-9.854-1.123-17.418-8.649-17.601-18.436c-0.229-12.323-0.251-24.657,0.006-36.979c0.221-10.646,8.999-18.677,20.055-18.72
		c16.492-0.062,32.982-0.018,49.476-0.018c16.325,0,32.65-0.02,48.977,0.007c12.524,0.021,20.603,7.979,20.666,20.504
		C170.473,141.073,170.462,156.398,170.398,171.723z M223.846,144.853c-0.284,2.021-3.312,4.714-5.518,5.225
		c-9.187,2.124-18.509,3.732-27.844,5.101c-3.613,0.529-5.214,1.715-5.39,5.515c-0.332,7.224-3.302,13.062-11.031,16.929
		c0-2.242-0.003-3.935,0-5.625c0.022-14.645,0.133-29.287,0.045-43.931c-0.063-10.852-1.508-14.489-8.116-21.882
		c5.948-0.4,11.624,0.574,14.784,5.354c2.901,4.387,4.086,9.906,6.19,15.353c11.934-1.214,24.394-2.479,38.15-3.88
		C224.756,130.787,224.824,137.893,223.846,144.853z"/>
	<g>
		<path fill="#424242" d="M64.621,113.22c4.087,0,8.173,0.003,12.26,0.007c4.09,0.003,8.179,0.007,12.269,0.007l12.287-0.003
			l12.284-0.002c5.416,0,10.83,0.002,16.246,0.011c8.243,0.013,13.19,4.914,13.232,13.111c0.062,11.755,0.062,24.277,0.005,38.287
			c-0.035,8.396-4.455,13.211-12.126,13.211c-0.765,0-1.563-0.05-2.377-0.146c-12.002-1.438-24.199-3.08-35.994-4.67l-6.554-0.883
			c-0.879-0.854-2.41-3.615-3.353-5.312c-2.505-4.521-4.87-8.788-8.817-9.304c-0.235-0.031-0.477-0.048-0.715-0.048
			c-4.003-0.001-6.348,3.952-8.612,7.774c-0.673,1.133-1.722,2.899-2.429,3.745c-6.186-0.79-11.266-1.408-15.918-1.938
			c-6.438-0.732-11.014-5.448-11.124-11.467c-0.202-10.816-0.2-20.85,0.004-30.667c0.139-6.636,5.611-11.659,12.733-11.687
			C53.488,113.227,59.055,113.22,64.621,113.22 M64.621,109.22c-5.57,0-11.144,0.006-16.713,0.027
			c-9.217,0.036-16.533,6.729-16.718,15.604c-0.214,10.271-0.195,20.553-0.004,30.823c0.15,8.157,6.458,14.432,14.67,15.367
			c5.629,0.643,11.252,1.341,16.873,2.062c0.063,0.008,0.129,0.014,0.192,0.014c3.449,0,6.896-11.631,10.347-11.631
			c0.064,0,0.131,0.005,0.196,0.014c3.892,0.509,7.78,14.026,11.668,14.55c14.358,1.928,28.711,3.903,43.093,5.625
			c0.98,0.117,1.934,0.176,2.854,0.176c9.877,0,16.081-6.638,16.126-17.193c0.053-12.774,0.062-25.551-0.005-38.325
			c-0.055-10.438-6.785-17.075-17.228-17.091c-5.418-0.009-10.835-0.011-16.253-0.011c-8.19,0-16.382,0.005-24.571,0.005
			C80.972,109.234,72.797,109.22,64.621,109.22L64.621,109.22z"/>
	</g>
</g>
</svg>
